<?xml version="1.0" encoding="UTF-8" standalone="no"?>
<!DOCTYPE svg PUBLIC "-//W3C//DTD SVG 1.1//EN" "http://www.w3.org/Graphics/SVG/1.1/DTD/svg11.dtd">
<svg width="100%" height="100%" viewBox="0 0 452 119" version="1.1" xmlns="http://www.w3.org/2000/svg" xmlns:xlink="http://www.w3.org/1999/xlink" xml:space="preserve" xmlns:serif="http://www.serif.com/" style="fill-rule:evenodd;clip-rule:evenodd;stroke-linejoin:round;stroke-miterlimit:2;">
    <g transform="matrix(1,0,0,1,-113.909,-95.1594)">
        <g transform="matrix(1,0,0,1,-4.70952,10.2276)">
            <text x="112.241px" y="179.978px" style="font-family:'RedHatDisplay-Regular', 'Red Hat Display';font-size:101.229px;fill:rgb(238,123,100);">hir<tspan x="223.29px 258.619px " y="179.978px 179.978px ">te</tspan>r</text>
        </g>
        <g transform="matrix(0.866275,0,0,0.893013,80.1965,-138.251)">
            <path d="M559.671,283.355C559.671,271.223 549.517,261.374 537.011,261.374L349.449,261.374C336.943,261.374 326.79,271.223 326.79,283.355L326.79,371.775C326.79,383.907 336.943,393.756 349.449,393.756L537.011,393.756C549.517,393.756 559.671,383.907 559.671,371.775L559.671,283.355Z" style="fill:rgb(238,123,100);"/>
        </g>
        <g transform="matrix(1,0,0,1,-56.5455,-20.2613)">
            <text x="433.111px" y="209.034px" style="font-family:'RedHatDisplay-Regular', 'Red Hat Display';font-size:101.229px;fill:rgb(251,255,250);">de<tspan x="547.906px " y="209.034px ">v</tspan></text>
        </g>
    </g>
</svg>
